<svg width="20" height="20" viewBox="0 0 20 20" fill="none" xmlns="http://www.w3.org/2000/svg">
<path d="M6.47396 14.1006C7.51642 14.1417 8.74967 14.1663 10.2086 14.1663C11.6673 14.1663 12.9004 14.1417 13.9428 14.1006C14.0878 14.5123 14.1667 14.9551 14.1667 15.4163C14.1667 17.6025 12.3945 19.3747 10.2083 19.3747C8.02221 19.3747 6.25 17.6025 6.25 15.4163C6.25 14.9551 6.32892 14.5123 6.47396 14.1006Z" fill="white"/>
<path d="M17.7631 11.0418C16.6774 11.952 15.2778 12.5 13.7502 12.5C10.2984 12.5 7.5002 9.70179 7.5002 6.25C7.5002 3.80703 8.90183 1.69143 10.9448 0.663488C10.7027 0.638038 10.457 0.625 10.2086 0.625C6.58483 0.625 3.56382 3.39815 3.25435 7.00867L3.05473 9.33758C2.97397 10.2797 2.67317 11.1898 2.17653 11.9946L1.56356 12.9878C1.18373 13.6033 1.0466 14.3145 1.28552 14.9448C1.5339 15.6 2.13066 16.0161 2.89502 16.1178C4.26108 16.2995 6.50949 16.4583 10.2086 16.4583C13.9077 16.4583 16.1561 16.2995 17.5221 16.1178C18.2865 16.0161 18.8832 15.6 19.1316 14.9448C19.3705 14.3145 19.2334 13.6033 18.8536 12.9878L18.2406 11.9946C18.0531 11.6907 17.8935 11.3718 17.7631 11.0418Z" fill="white"/>
<path fill-rule="evenodd" clip-rule="evenodd" d="M18.75 6.25C18.75 9.01142 16.5114 11.25 13.75 11.25C10.9886 11.25 8.75 9.01142 8.75 6.25C8.75 3.48857 10.9886 1.25 13.75 1.25C16.5114 1.25 18.75 3.48857 18.75 6.25Z" fill="#F94430"/>
</svg>
