<svg width="13" height="14" viewBox="0 0 13 14" fill="none" xmlns="http://www.w3.org/2000/svg">
<path d="M3.66671 8.33301C3.47782 8.33301 3.31938 8.26901 3.19138 8.14101C3.06338 8.01301 2.9996 7.85479 3.00004 7.66634C3.00004 7.47746 3.06404 7.31901 3.19204 7.19101C3.32004 7.06301 3.47826 6.99923 3.66671 6.99968H9.00004C9.18893 6.99968 9.34737 7.06368 9.47538 7.19168C9.60338 7.31968 9.66715 7.4779 9.66671 7.66634C9.66671 7.85523 9.60271 8.01368 9.47471 8.14168C9.34671 8.26968 9.18849 8.33346 9.00004 8.33301H3.66671ZM3.66671 10.9997C3.47782 10.9997 3.31938 10.9357 3.19138 10.8077C3.06338 10.6797 2.9996 10.5215 3.00004 10.333C3.00004 10.1441 3.06404 9.98568 3.19204 9.85768C3.32004 9.72968 3.47826 9.6659 3.66671 9.66634H7.00004C7.18893 9.66634 7.34738 9.73034 7.47538 9.85834C7.60338 9.98634 7.66715 10.1446 7.66671 10.333C7.66671 10.5219 7.60271 10.6803 7.47471 10.8083C7.34671 10.9363 7.18849 11.0001 7.00004 10.9997H3.66671ZM1.66671 13.6663C1.30004 13.6663 0.986042 13.5357 0.724708 13.2743C0.463375 13.013 0.332931 12.6992 0.333375 12.333V2.99968C0.333375 2.63301 0.464042 2.31901 0.725375 2.05768C0.986709 1.79634 1.30049 1.6659 1.66671 1.66634H2.33338V0.999677C2.33338 0.810788 2.39738 0.652343 2.52538 0.524343C2.65338 0.396343 2.8116 0.332566 3.00004 0.33301C3.18893 0.33301 3.34738 0.39701 3.47538 0.52501C3.60338 0.65301 3.66715 0.811232 3.66671 0.999677V1.66634H9.00004V0.999677C9.00004 0.810788 9.06404 0.652343 9.19204 0.524343C9.32004 0.396343 9.47826 0.332566 9.66671 0.33301C9.8556 0.33301 10.014 0.39701 10.142 0.52501C10.27 0.65301 10.3338 0.811232 10.3334 0.999677V1.66634H11C11.3667 1.66634 11.6807 1.79701 11.942 2.05834C12.2034 2.31968 12.3338 2.63345 12.3334 2.99968V12.333C12.3334 12.6997 12.2027 13.0137 11.9414 13.275C11.68 13.5363 11.3663 13.6668 11 13.6663H1.66671ZM1.66671 12.333H11V5.66634H1.66671V12.333Z" fill="black"/>
</svg>
