<svg width="14" height="14" viewBox="0 0 14 14" fill="none" xmlns="http://www.w3.org/2000/svg">
<path d="M6.99967 0.333008C7.88373 0.333008 8.73158 0.684197 9.3567 1.30932C9.98182 1.93444 10.333 2.78229 10.333 3.66634C10.333 4.5504 9.98182 5.39824 9.3567 6.02336C8.73158 6.64849 7.88373 6.99967 6.99967 6.99967C6.11562 6.99967 5.26777 6.64849 4.64265 6.02336C4.01753 5.39824 3.66634 4.5504 3.66634 3.66634C3.66634 2.78229 4.01753 1.93444 4.64265 1.30932C5.26777 0.684197 6.11562 0.333008 6.99967 0.333008ZM6.99967 1.99967C6.55765 1.99967 6.13372 2.17527 5.82116 2.48783C5.5086 2.80039 5.33301 3.22431 5.33301 3.66634C5.33301 4.10837 5.5086 4.53229 5.82116 4.84485C6.13372 5.15741 6.55765 5.33301 6.99967 5.33301C7.4417 5.33301 7.86563 5.15741 8.17819 4.84485C8.49075 4.53229 8.66634 4.10837 8.66634 3.66634C8.66634 3.22431 8.49075 2.80039 8.17819 2.48783C7.86563 2.17527 7.4417 1.99967 6.99967 1.99967ZM6.99967 7.83301C9.22468 7.83301 13.6663 8.94134 13.6663 11.1663V13.6663H0.333008V11.1663C0.333008 8.94134 4.77467 7.83301 6.99967 7.83301ZM6.99967 9.41634C4.52467 9.41634 1.91634 10.633 1.91634 11.1663V12.083H12.083V11.1663C12.083 10.633 9.47468 9.41634 6.99967 9.41634Z" fill="black"/>
</svg>
