<svg width="20" height="20" viewBox="0 0 20 20" fill="none" xmlns="http://www.w3.org/2000/svg">
<g clip-path="url(#clip0_1_1483)">
<path d="M19.4126 16.6998L11.7109 8.99808L2.71281 0H2.00961L1.86602 0.364857C1.48705 1.32788 1.32512 2.31286 1.39782 3.21316C1.48068 4.23941 1.87055 5.1279 2.52534 5.7827L9.54972 12.8071L10.4762 11.8806L16.9703 19.1421C17.6163 19.7881 18.7282 19.8265 19.4126 19.1421C20.086 18.4687 20.086 17.3731 19.4126 16.6998Z" fill="black"/>
<path d="M6.29454 11.1807L0.793077 16.6821C0.119755 17.3555 0.119755 18.4511 0.793077 19.1244C1.43272 19.7641 2.53926 19.8205 3.23536 19.1244L8.73687 13.6229L6.29454 11.1807Z" fill="black"/>
<path d="M19.0898 3.26913L15.9691 6.38984L15.1549 5.57573L18.2757 2.45498L17.4616 1.64087L14.3409 4.76159L13.5268 3.94748L16.6475 0.826766L15.8334 0.0126953L11.7629 4.08324C11.2649 4.58121 10.9676 5.24241 10.9255 5.94512C10.9149 6.12315 10.8746 6.29827 10.8076 6.46484L13.4518 9.10906C13.6184 9.04204 13.7936 9.00173 13.9716 8.9911C14.6743 8.94917 15.3355 8.65175 15.8334 8.15378L19.904 4.08328L19.0898 3.26913Z" fill="black"/>
</g>
<defs>
<clipPath id="clip0_1_1483">
<rect width="19.6411" height="19.6411" fill="white" transform="translate(0.282227)"/>
</clipPath>
</defs>
</svg>
