<svg width="21" height="19" viewBox="0 0 21 19" fill="none" xmlns="http://www.w3.org/2000/svg">
<path d="M20.75 6.16688C20.75 9.00022 19.1111 11.9076 15.8796 14.815C14.4123 16.1342 12.8145 17.3007 11.1111 18.2965C11.0005 18.3573 10.8763 18.3892 10.75 18.3892C10.6237 18.3892 10.4995 18.3573 10.3889 18.2965C9.99074 18.0743 0.75 12.8243 0.75 6.16688C0.75 5.00087 1.11687 3.86441 1.79865 2.91849C2.48043 1.97257 3.44256 1.26515 4.54873 0.896421C5.65491 0.527695 6.84907 0.516363 7.96204 0.864031C9.07502 1.2117 10.0504 1.90074 10.75 2.83355C11.4496 1.90074 12.425 1.2117 13.538 0.864031C14.6509 0.516363 15.8451 0.527695 16.9513 0.896421C18.0574 1.26515 19.0196 1.97257 19.7013 2.91849C20.3831 3.86441 20.75 5.00087 20.75 6.16688Z" fill="#D9DFE4" fill-opacity="0.5"/>
</svg>
