<svg width="18" height="18" viewBox="0 0 18 18" fill="none" xmlns="http://www.w3.org/2000/svg">
<path fill-rule="evenodd" clip-rule="evenodd" d="M10.4291 0.722069C9.64993 -0.0899736 8.35045 -0.0899736 7.57123 0.722069C7.08652 1.22721 6.37062 1.43875 5.68927 1.27786C4.59969 1.02057 3.51023 1.73666 3.2913 2.8346C3.15404 3.52294 2.66412 4.09931 2.00359 4.33671C0.94604 4.71679 0.414158 5.90699 0.819227 6.95522C1.07301 7.61196 0.968149 8.36357 0.540484 8.92287C-0.145012 9.81936 0.0364212 11.1084 0.946771 11.7754C1.51397 12.1909 1.82244 12.8833 1.76216 13.5839C1.66612 14.7002 2.50954 15.6953 3.62817 15.7588C4.32781 15.7985 4.95782 16.2093 5.28148 16.8309C5.79944 17.8255 7.04603 18.2002 8.01939 17.6433C8.62704 17.2956 9.37334 17.2956 9.98099 17.6433C10.9543 18.2002 12.2009 17.8255 12.7189 16.8309C13.0426 16.2093 13.6726 15.7985 14.3722 15.7588C15.4908 15.6953 16.3343 14.7002 16.2382 13.5839C16.1779 12.8833 16.4864 12.1909 17.0536 11.7754C17.964 11.1084 18.1454 9.81936 17.4599 8.92287C17.0322 8.36357 16.9274 7.61196 17.1811 6.95522C17.5862 5.90699 17.0543 4.71679 15.9968 4.33671C15.3363 4.09931 14.8463 3.52294 14.7091 2.8346C14.4901 1.73666 13.4007 1.02057 12.3111 1.27786C11.6298 1.43875 10.9139 1.22721 10.4291 0.722069ZM6.44214 9.12651C6.20058 8.87984 5.80893 8.87984 5.56736 9.12651C5.3258 9.37318 5.3258 9.77311 5.56736 10.0198L7.24029 11.7281C7.32621 11.8158 7.43112 11.8723 7.5415 11.8977C7.76246 11.9839 8.02212 11.9362 8.20021 11.7543L12.1821 7.68824C12.4237 7.44157 12.4237 7.04164 12.1821 6.79497C11.9405 6.5483 11.5489 6.5483 11.3073 6.79497L7.73309 10.4447L6.44214 9.12651ZM9.01414 15.6881C12.6755 15.6881 15.6436 12.6883 15.6436 8.98793C15.6436 5.28754 12.6755 2.28778 9.01414 2.28778C5.35277 2.28778 2.38464 5.28754 2.38464 8.98793C2.38464 12.6883 5.35277 15.6881 9.01414 15.6881ZM9.01414 14.348C6.08504 14.348 3.71054 11.9482 3.71054 8.98793C3.71054 6.02762 6.08504 3.62781 9.01414 3.62781C11.9432 3.62781 14.3177 6.02762 14.3177 8.98793C14.3177 11.9482 11.9432 14.348 9.01414 14.348Z" fill="black" fill-opacity="0.1"/>
<path d="M15.6438 8.98775C15.6438 12.6881 12.6756 15.6879 9.01427 15.6879C5.3529 15.6879 2.38477 12.6881 2.38477 8.98775C2.38477 5.28736 5.3529 2.2876 9.01427 2.2876C12.6756 2.2876 15.6438 5.28736 15.6438 8.98775ZM3.71067 8.98775C3.71067 11.9481 6.08517 14.3479 9.01427 14.3479C11.9434 14.3479 14.3179 11.9481 14.3179 8.98775C14.3179 6.02743 11.9434 3.62763 9.01427 3.62763C6.08517 3.62763 3.71067 6.02743 3.71067 8.98775Z" fill="white" fill-opacity="0.5"/>
<path d="M15.6438 8.98775C15.6438 12.6881 12.6756 15.6879 9.01427 15.6879C5.3529 15.6879 2.38477 12.6881 2.38477 8.98775C2.38477 5.28736 5.3529 2.2876 9.01427 2.2876C12.6756 2.2876 15.6438 5.28736 15.6438 8.98775ZM3.71067 8.98775C3.71067 11.9481 6.08517 14.3479 9.01427 14.3479C11.9434 14.3479 14.3179 11.9481 14.3179 8.98775C14.3179 6.02743 11.9434 3.62763 9.01427 3.62763C6.08517 3.62763 3.71067 6.02743 3.71067 8.98775Z" fill="black" style="mix-blend-mode:overlay"/>
</svg>
