<svg width="21" height="18" viewBox="0 0 21 18" fill="none" xmlns="http://www.w3.org/2000/svg">
<path d="M8.65749 17.7363C9.04434 18.1022 9.65456 18.0852 10.0205 17.6984C10.3864 17.3115 10.3694 16.7012 9.9825 16.3354L3.24763 9.96551H19.6042C20.1366 9.96551 20.5683 9.53384 20.5683 9.00138C20.5683 8.4689 20.1366 8.03724 19.6042 8.03724H3.24471L9.9825 1.66461C10.3694 1.29871 10.3864 0.688492 10.0205 0.301642C9.65456 -0.0852217 9.04434 -0.102216 8.65749 0.26368L0.408049 8.06605C0.194267 8.26825 0.0657158 8.52549 0.022381 8.79389C0.00772616 8.86071 0 8.93015 0 9.00138C0 9.07542 0.00834315 9.14754 0.0241421 9.2167C0.0691224 9.48126 0.197096 9.73438 0.408049 9.93389L8.65749 17.7363Z" fill="#212121"/>
</svg>
