<svg width="27" height="27" viewBox="0 0 27 27" fill="none" xmlns="http://www.w3.org/2000/svg">
<path d="M14.9996 7.8001C14.9996 9.70966 14.241 11.541 12.8908 12.8913C11.5405 14.2415 9.70917 15.0001 7.79961 15.0001C5.89005 15.0001 4.0587 14.2415 2.70844 12.8913C1.35818 11.541 0.599609 9.70966 0.599609 7.8001C0.599609 5.89054 1.35818 4.05919 2.70844 2.70893C4.0587 1.35867 5.89005 0.600098 7.79961 0.600098C9.70917 0.600098 11.5405 1.35867 12.8908 2.70893C14.241 4.05919 14.9996 5.89054 14.9996 7.8001ZM8.59961 4.6001C8.59961 4.38792 8.51532 4.18444 8.36529 4.03441C8.21527 3.88438 8.01178 3.8001 7.79961 3.8001C7.58744 3.8001 7.38395 3.88438 7.23392 4.03441C7.0839 4.18444 6.99961 4.38792 6.99961 4.6001V7.0001H4.59961C4.38744 7.0001 4.18395 7.08438 4.03392 7.23441C3.8839 7.38444 3.79961 7.58792 3.79961 7.8001C3.79961 8.01227 3.8839 8.21575 4.03392 8.36578C4.18395 8.51581 4.38744 8.6001 4.59961 8.6001H6.99961V11.0001C6.99961 11.2123 7.0839 11.4158 7.23392 11.5658C7.38395 11.7158 7.58744 11.8001 7.79961 11.8001C8.01178 11.8001 8.21527 11.7158 8.36529 11.5658C8.51532 11.4158 8.59961 11.2123 8.59961 11.0001V8.6001H10.9996C11.2118 8.6001 11.4153 8.51581 11.5653 8.36578C11.7153 8.21575 11.7996 8.01227 11.7996 7.8001C11.7996 7.58792 11.7153 7.38444 11.5653 7.23441C11.4153 7.08438 11.2118 7.0001 10.9996 7.0001H8.59961V4.6001ZM21.3996 5.4001H16.2684C16.1119 4.84741 15.9012 4.31149 15.6396 3.8001H21.3996C22.6726 3.8001 23.8935 4.30581 24.7937 5.20599C25.6939 6.10616 26.1996 7.32706 26.1996 8.6001V21.4001C26.1996 22.6731 25.6939 23.894 24.7937 24.7942C23.8935 25.6944 22.6726 26.2001 21.3996 26.2001H8.59961C7.32657 26.2001 6.10567 25.6944 5.2055 24.7942C4.30532 23.894 3.79961 22.6731 3.79961 21.4001V15.6401C4.30681 15.8993 4.84121 16.1105 5.39961 16.2689V21.4001C5.39961 21.9969 5.56281 22.5553 5.84761 23.0321L13.318 15.6913C13.7668 15.2506 14.3706 15.0037 14.9996 15.0037C15.6286 15.0037 16.2324 15.2506 16.6812 15.6913L24.1532 23.0321C24.4465 22.5383 24.6007 21.9744 24.5996 21.4001V8.6001C24.5996 7.7514 24.2625 6.93747 23.6624 6.33736C23.0622 5.73724 22.2483 5.4001 21.3996 5.4001ZM21.3996 11.0001C21.3996 11.3153 21.3375 11.6274 21.2169 11.9185C21.0963 12.2097 20.9195 12.4743 20.6967 12.6972C20.4738 12.92 20.2092 13.0968 19.9181 13.2174C19.6269 13.338 19.3148 13.4001 18.9996 13.4001C18.6844 13.4001 18.3724 13.338 18.0812 13.2174C17.79 13.0968 17.5254 12.92 17.3026 12.6972C17.0797 12.4743 16.9029 12.2097 16.7823 11.9185C16.6617 11.6274 16.5996 11.3153 16.5996 11.0001C16.5996 10.3636 16.8525 9.75313 17.3026 9.30304C17.7526 8.85295 18.3631 8.6001 18.9996 8.6001C19.6361 8.6001 20.2466 8.85295 20.6967 9.30304C21.1468 9.75313 21.3996 10.3636 21.3996 11.0001ZM19.7996 11.0001C19.7996 10.7879 19.7153 10.5844 19.5653 10.4344C19.4153 10.2844 19.2118 10.2001 18.9996 10.2001C18.7874 10.2001 18.584 10.2844 18.4339 10.4344C18.2839 10.5844 18.1996 10.7879 18.1996 11.0001C18.1996 11.2123 18.2839 11.4158 18.4339 11.5658C18.584 11.7158 18.7874 11.8001 18.9996 11.8001C19.2118 11.8001 19.4153 11.7158 19.5653 11.5658C19.7153 11.4158 19.7996 11.2123 19.7996 11.0001ZM6.98041 24.1617C7.47125 24.4499 8.03039 24.6013 8.59961 24.6001H21.3996C21.9916 24.6001 22.5436 24.4401 23.0188 24.1617L15.5596 16.8337C15.4101 16.6871 15.209 16.605 14.9996 16.605C14.7902 16.605 14.5892 16.6871 14.4396 16.8337L6.98041 24.1617Z" fill="#595959"/>
</svg>
