<svg width="18" height="12" viewBox="0 0 18 12" fill="none" xmlns="http://www.w3.org/2000/svg">
<path d="M9 3.75C8.40326 3.75 7.83097 3.98705 7.40901 4.40901C6.98705 4.83097 6.75 5.40326 6.75 6C6.75 6.59674 6.98705 7.16903 7.40901 7.59099C7.83097 8.01295 8.40326 8.25 9 8.25C9.59674 8.25 10.169 8.01295 10.591 7.59099C11.0129 7.16903 11.25 6.59674 11.25 6C11.25 5.40326 11.0129 4.83097 10.591 4.40901C10.169 3.98705 9.59674 3.75 9 3.75ZM9 9.75C8.00544 9.75 7.05161 9.35491 6.34835 8.65165C5.64509 7.94839 5.25 6.99456 5.25 6C5.25 5.00544 5.64509 4.05161 6.34835 3.34835C7.05161 2.64509 8.00544 2.25 9 2.25C9.99456 2.25 10.9484 2.64509 11.6517 3.34835C12.3549 4.05161 12.75 5.00544 12.75 6C12.75 6.99456 12.3549 7.94839 11.6517 8.65165C10.9484 9.35491 9.99456 9.75 9 9.75ZM9 0.375C5.25 0.375 2.0475 2.7075 0.75 6C2.0475 9.2925 5.25 11.625 9 11.625C12.75 11.625 15.9525 9.2925 17.25 6C15.9525 2.7075 12.75 0.375 9 0.375Z" fill="black"/>
</svg>
