<svg width="20" height="12" viewBox="0 0 20 12" fill="none" xmlns="http://www.w3.org/2000/svg">
<path d="M10 0.166992C9.22645 0.166992 8.48459 0.474283 7.93761 1.02126C7.39062 1.56825 7.08333 2.31011 7.08333 3.08366C7.08333 3.85721 7.39062 4.59907 7.93761 5.14605C8.48459 5.69304 9.22645 6.00033 10 6.00033C10.7735 6.00033 11.5154 5.69304 12.0624 5.14605C12.6094 4.59907 12.9167 3.85721 12.9167 3.08366C12.9167 2.31011 12.6094 1.56825 12.0624 1.02126C11.5154 0.474283 10.7735 0.166992 10 0.166992ZM10 1.83366C10.3315 1.83366 10.6495 1.96535 10.8839 2.19978C11.1183 2.4342 11.25 2.75214 11.25 3.08366C11.25 3.41518 11.1183 3.73312 10.8839 3.96754C10.6495 4.20196 10.3315 4.33366 10 4.33366C9.66848 4.33366 9.35054 4.20196 9.11612 3.96754C8.8817 3.73312 8.75 3.41518 8.75 3.08366C8.75 2.75214 8.8817 2.4342 9.11612 2.19978C9.35054 1.96535 9.66848 1.83366 10 1.83366ZM4.58333 2.66699C4.0308 2.66699 3.5009 2.88649 3.11019 3.27719C2.71949 3.66789 2.5 4.19779 2.5 4.75033C2.5 5.53366 2.94167 6.20866 3.575 6.56699C3.875 6.73366 4.21667 6.83366 4.58333 6.83366C4.95 6.83366 5.29167 6.73366 5.59167 6.56699C5.9 6.39199 6.15833 6.14199 6.35 5.84199C5.7429 5.0508 5.41473 4.08093 5.41667 3.08366V2.85033C5.16667 2.73366 4.88333 2.66699 4.58333 2.66699ZM15.4167 2.66699C15.1167 2.66699 14.8333 2.73366 14.5833 2.85033V3.08366C14.5833 4.08366 14.2583 5.05033 13.65 5.84199C13.75 6.00033 13.8583 6.12533 13.9833 6.25033C14.3676 6.62291 14.8814 6.83201 15.4167 6.83366C15.7833 6.83366 16.125 6.73366 16.425 6.56699C17.0583 6.20866 17.5 5.53366 17.5 4.75033C17.5 4.19779 17.2805 3.66789 16.8898 3.27719C16.4991 2.88649 15.9692 2.66699 15.4167 2.66699ZM10 7.66699C8.05 7.66699 4.16667 8.64199 4.16667 10.5837V11.8337H15.8333V10.5837C15.8333 8.64199 11.95 7.66699 10 7.66699ZM3.925 8.12533C2.31667 8.31699 0 9.13366 0 10.5837V11.8337H2.5V10.2253C2.5 9.38366 3.075 8.68366 3.925 8.12533ZM16.075 8.12533C16.925 8.68366 17.5 9.38366 17.5 10.2253V11.8337H20V10.5837C20 9.13366 17.6833 8.31699 16.075 8.12533ZM10 9.33366C11.275 9.33366 12.7 9.75033 13.525 10.167H6.475C7.3 9.75033 8.725 9.33366 10 9.33366Z" fill="black"/>
</svg>
